<?xml version="1.0" encoding="utf-8"?>
<!-- Generator: Adobe Illustrator 18.0.0, SVG Export Plug-In . SVG Version: 6.00 Build 0)  -->
<!DOCTYPE svg PUBLIC "-//W3C//DTD SVG 1.1//EN" "http://www.w3.org/Graphics/SVG/1.1/DTD/svg11.dtd">
<svg version="1.1" id="图层_1" xmlns="http://www.w3.org/2000/svg" xmlns:xlink="http://www.w3.org/1999/xlink" x="0px" y="0px"
	 viewBox="0 0 46 46" enable-background="new 0 0 46 46" xml:space="preserve">
<g fill= "#00d5fe">
	<g>
		<path d="M38.8,7.2C34.7,3,29.1,0.7,23.3,0.7S11.9,3,7.7,7.2c-4.2,4.2-6.4,9.7-6.4,15.6s2.3,11.4,6.4,15.6
			c4.2,4.2,9.7,6.4,15.6,6.4s11.4-2.3,15.6-6.4c4.2-4.2,6.4-9.7,6.4-15.6S43,11.3,38.8,7.2z M23.3,42.5c-10.9,0-19.7-8.9-19.7-19.7
			S12.4,3,23.3,3S43,11.9,43,22.7S34.2,42.5,23.3,42.5z M23.2,18.1c-1,0-1.7,0.8-1.7,1.7v14.3c0,1,0.8,1.7,1.7,1.7s1.7-0.8,1.7-1.7
			V19.8C24.9,18.9,24.1,18.1,23.2,18.1z M24.4,10.2C24,10,23.6,9.9,23.2,9.9c-0.4,0-0.8,0.1-1.2,0.3c-0.7,0.4-1.2,1.2-1.2,2
			c0,0.8,0.4,1.6,1.2,2c0.4,0.2,0.8,0.3,1.2,0.3c0.4,0,0.8-0.1,1.2-0.3c0.7-0.4,1.2-1.2,1.2-2C25.5,11.4,25.1,10.6,24.4,10.2z"/>
	</g>
</g>
</svg>
