<?xml version="1.0" encoding="utf-8"?>
<!-- Generator: Adobe Illustrator 18.0.0, SVG Export Plug-In . SVG Version: 6.00 Build 0)  -->
<!DOCTYPE svg PUBLIC "-//W3C//DTD SVG 1.1//EN" "http://www.w3.org/Graphics/SVG/1.1/DTD/svg11.dtd">
<svg version="1.1" id="图层_1" xmlns="http://www.w3.org/2000/svg" xmlns:xlink="http://www.w3.org/1999/xlink" x="0px" y="0px"
	 viewBox="0 0 46 46" enable-background="new 0 0 46 46" xml:space="preserve" fill= "#00d5fe">
<path d="M28.7,28.2L28.7,28.2c-0.7,0-1.2,0.6-1.2,1.3v13.4c0,0.7,0.6,1.3,1.2,1.3c0.7,0,1.2-0.6,1.2-1.3V29.5
	C29.9,28.8,29.4,28.2,28.7,28.2z M24.1,28.2L24.1,28.2c-0.6,0-1,0.4-1.2,0.9L19,41.3H19l-3.9-12.2c-0.2-0.5-0.6-0.9-1.2-0.9h0l0,0
	c-0.9,0-1.5,0.9-1.2,1.8l4.5,13.4c0.2,0.5,0.6,0.9,1.2,0.9h1.2c0.5,0,1-0.4,1.2-0.9L25.3,30C25.6,29.1,25,28.2,24.1,28.2z
	 M39.2,28.2h-5c-0.7,0-1.2,0.6-1.2,1.3h0v13.4c0,0.7,0.6,1.3,1.2,1.3c0.7,0,1.2-0.6,1.2-1.3v-3.5c0-0.7,0.6-1.3,1.2-1.3h2.5
	c3.7,0,5.5-1.7,5.5-5C44.6,29.9,42.8,28.2,39.2,28.2z M41.4,35.2c-0.5,0.4-1.3,0.6-2.4,0.6h-2.4c-0.7,0-1.2-0.6-1.2-1.3v-2.8l0,0
	c0-0.7,0.6-1.3,1.2-1.3H39c1.1,0,1.9,0.2,2.4,0.6c0.5,0.4,0.8,1.1,0.8,2C42.1,34.1,41.9,34.8,41.4,35.2z M32.6,12
	c0-6-4.8-10.8-10.7-10.8c-5.9,0-10.7,4.8-10.7,10.8c0,4.2,2.4,7.9,5.9,9.6c-2.2,0.4-4.5,1.2-6.7,2.6C5.1,27.8,1.8,34,0.6,42.9
	c0,0,0,0.1,0,0.2c0,0.6,0.5,1.2,1.1,1.2h0v0c0.6,0,1.1-0.4,1.1-1c1-8.2,4-13.9,8.8-17c7.5-4.8,17.1-1.7,17.2-1.6
	c0.1,0,0.2,0.1,0.4,0.1c0.6,0,1.1-0.5,1.1-1.2c0-0.5-0.3-0.9-0.8-1.1c-0.1,0-1.2-0.4-3-0.7C30.2,19.9,32.6,16.3,32.6,12z M22,20.4
	c-4.6,0-8.3-3.8-8.3-8.4c0-4.6,3.7-8.4,8.3-8.4c4.6,0,8.3,3.8,8.3,8.4C30.2,16.6,26.5,20.4,22,20.4z"/>
</svg>
