<?xml version="1.0" encoding="utf-8"?>
<!-- Generator: Adobe Illustrator 18.0.0, SVG Export Plug-In . SVG Version: 6.00 Build 0)  -->
<!DOCTYPE svg PUBLIC "-//W3C//DTD SVG 1.1//EN" "http://www.w3.org/Graphics/SVG/1.1/DTD/svg11.dtd">
<svg version="1.1" id="图层_1" xmlns="http://www.w3.org/2000/svg" xmlns:xlink="http://www.w3.org/1999/xlink" x="0px" y="0px"
	 viewBox="0 0 46 46" enable-background="new 0 0 46 46" xml:space="preserve">
<g fill="#00d5fe">
	<g>
		<path d="M23.1,20.5c-1.8,0-3.3,1.5-3.3,3.3c0,1.7,0.7,2.8,2.2,3.2v2.4c0,0.4,0.3,0.7,0.7,0.7h0.7c0.4,0,0.7-0.3,0.7-0.7v-2.4
			c1.5-0.4,2.2-1.4,2.2-3.2C26.4,22,24.9,20.5,23.1,20.5z M23.1,25c-0.6,0-1.1-0.5-1.1-1.1s0.5-1.1,1.1-1.1s1.1,0.5,1.1,1.1
			S23.7,25,23.1,25z M32,16.8h-1.9v-1.1c0-2.2-0.6-4-1.8-5.2c-1.2-1.2-3-1.8-5.2-1.8s-4,0.6-5.2,1.8c-1.2,1.2-1.8,3-1.8,5.2v1.1
			h-1.9c-1,0-1.9,0.8-1.9,1.9v12.6c0,1,0.8,1.9,1.9,1.9H32c0.5,0,1-0.2,1.3-0.5c0.4-0.4,0.5-0.8,0.5-1.3V18.7
			C33.8,17.7,33,16.8,32,16.8z M18.2,15.7c0-1.6,0.4-2.9,1.2-3.7s2-1.2,3.7-1.2c1.6,0,2.9,0.4,3.7,1.2c0.8,0.8,1.2,2,1.2,3.7v1.1
			h-9.7V15.7z M31.6,30.6c0,0.2-0.1,0.4-0.4,0.4H14.9c-0.2,0-0.4-0.1-0.4-0.4V19.4c0-0.2,0.1-0.4,0.4-0.4h16.4
			c0.2,0,0.4,0.1,0.4,0.4V30.6z M43.3,14.2c-1.1-2.6-2.7-5-4.7-7c-2-2-4.4-3.6-7-4.7C28.8,1.3,26,0.7,23,0.7c-3,0-5.9,0.6-8.6,1.7
			c-2.6,1.1-5,2.7-7,4.7c-2,2-3.6,4.4-4.7,7C1.6,16.9,1,19.8,1,22.7s0.6,5.9,1.7,8.6c1.1,2.6,2.7,5,4.7,7c2,2,4.4,3.6,7,4.7
			c2.7,1.1,5.6,1.7,8.6,1.7c3,0,5.9-0.6,8.6-1.7c2.6-1.1,5-2.7,7-4.7c2-2,3.6-4.4,4.7-7c1.1-2.7,1.7-5.6,1.7-8.6
			S44.4,16.9,43.3,14.2z M41.3,30.5c-1,2.4-2.4,4.5-4.3,6.3c-1.8,1.8-4,3.3-6.3,4.3c-2.5,1-5.1,1.6-7.7,1.6c-2.7,0-5.3-0.5-7.7-1.6
			c-2.4-1-4.5-2.4-6.3-4.3c-1.8-1.8-3.3-4-4.3-6.3c-1-2.5-1.6-5.1-1.6-7.7c0-2.7,0.5-5.3,1.6-7.7c1-2.4,2.4-4.5,4.3-6.3
			c1.8-1.8,4-3.3,6.3-4.3c2.5-1,5.1-1.6,7.7-1.6c2.7,0,5.3,0.5,7.7,1.6c2.4,1,4.5,2.4,6.3,4.3c1.8,1.8,3.3,4,4.3,6.3
			c1,2.5,1.6,5.1,1.6,7.7C42.9,25.4,42.4,28,41.3,30.5z"/>
	</g>
</g>
</svg>
