<?xml version="1.0" encoding="utf-8"?>
<!-- Generator: Adobe Illustrator 18.0.0, SVG Export Plug-In . SVG Version: 6.00 Build 0)  -->
<!DOCTYPE svg PUBLIC "-//W3C//DTD SVG 1.1//EN" "http://www.w3.org/Graphics/SVG/1.1/DTD/svg11.dtd">
<svg version="1.1" id="图层_1" xmlns="http://www.w3.org/2000/svg" xmlns:xlink="http://www.w3.org/1999/xlink" x="0px" y="0px"
	 viewBox="0 0 46 46" enable-background="new 0 0 46 46" xml:space="preserve" fill= "#00d5fe">
<path d="M44,21.6c-0.4-0.7-1.4-1.6-1.4-1.6L38.2,8.9h0c-0.9-2.1-3.6-3.2-4.7-3.2H12.1c-1.2,0-3.8,1.1-4.7,3.2L3.1,20
	c0,0-1.1,0.8-1.4,1.6c-0.4,0.7-0.8,1.4-0.8,6.3c0,4.8,1,6.5,2.2,7.1l1,0.5v2.4c0,1.4,0.4,1.9,1.8,1.9H9c1.4,0,1.8-0.4,1.8-1.9v-2.4
	h24v2.4c0,1.4,0.4,1.9,1.8,1.9h3.2c1.4,0,1.8-0.4,1.8-1.9v-2.4l1-0.5c1.2-0.6,2.2-2.3,2.2-7.1C44.8,22.9,44.4,22.3,44,21.6L44,21.6z
	 M11.3,30.1c-1.5,0-2.8-1.2-2.8-2.7c0-1.5,1.3-2.7,2.8-2.7c1.5,0,2.8,1.2,2.8,2.7C14.1,28.9,12.9,30.1,11.3,30.1L11.3,30.1z
	 M34.4,30.1c-1.5,0-2.8-1.2-2.8-2.7c0-1.5,1.3-2.7,2.8-2.7c1.5,0,2.8,1.2,2.8,2.7C37.2,28.9,36,30.1,34.4,30.1L34.4,30.1z M39.5,20
	H6.1c0,0-0.8,0.1-0.6-0.8c0.2-0.7,3.1-7.7,3.7-9.6c0.2-0.7,1.6-2.2,3.5-2.1h20.2c1.9-0.1,3.3,1.4,3.5,2.1c0.6,1.9,3.5,8.9,3.7,9.6
	C40.3,20.1,39.5,20,39.5,20L39.5,20z"/>
</svg>
