<?xml version="1.0" encoding="utf-8"?>
<!-- Generator: Adobe Illustrator 18.0.0, SVG Export Plug-In . SVG Version: 6.00 Build 0)  -->
<!DOCTYPE svg PUBLIC "-//W3C//DTD SVG 1.1//EN" "http://www.w3.org/Graphics/SVG/1.1/DTD/svg11.dtd">
<svg version="1.1" id="图层_1" xmlns="http://www.w3.org/2000/svg" xmlns:xlink="http://www.w3.org/1999/xlink" x="0px" y="0px"
	 viewBox="0 0 46 46" enable-background="new 0 0 46 46" xml:space="preserve">
<g fill= "#00d5fe">
	<g>
		<path d="M13.7,17.3c-0.7,0-1.4,0.3-2,0.8c-0.5,0.5-0.8,1.2-0.8,2c0,0.7,0.3,1.5,0.8,2c0.5,0.5,1.2,0.8,2,0.8c0.7,0,1.4-0.3,2-0.8
			s0.8-1.2,0.8-2c0-0.7-0.3-1.5-0.8-2C15.2,17.6,14.4,17.3,13.7,17.3z M23.6,17.3c-0.7,0-1.4,0.3-2,0.8c-0.5,0.5-0.8,1.2-0.8,2
			c0,0.7,0.3,1.5,0.8,2c0.5,0.5,1.2,0.8,2,0.8s1.4-0.3,2-0.8c0.5-0.5,0.8-1.2,0.8-2c0-0.7-0.3-1.5-0.8-2
			C25,17.6,24.3,17.3,23.6,17.3z M33.4,17.4c-0.7,0-1.4,0.3-2,0.8c-0.5,0.5-0.8,1.2-0.8,2c0,0.7,0.3,1.5,0.8,2
			c0.5,0.5,1.2,0.8,2,0.8c0.7,0,1.4-0.3,2-0.8c0.5-0.5,0.8-1.2,0.8-2c0-0.7-0.3-1.5-0.8-2C34.9,17.7,34.1,17.4,33.4,17.4z M39,6.4
			c-4.2-3.7-9.7-5.7-15.6-5.7c-5.9,0-11.4,2-15.6,5.7c-4.1,3.7-6.4,8.5-6.4,13.7c0,5.9,3,11.4,8.2,15.1l0.2,0.4v9.2l9.2-5.6l0.3-0.1
			c1.4,0.2,2.8,0.4,4.1,0.4c5.9,0,11.4-2,15.6-5.7c4.1-3.7,6.4-8.5,6.4-13.7C45.5,14.9,43.2,10.1,39,6.4z M23.5,37
			c-1.2,0-2.5-0.1-3.7-0.3l-1-0.2L12.9,40l-0.7-0.4V34l-1.2-0.9c-4.6-3.2-7.2-8-7.2-13.1c0-9.3,8.8-16.9,19.6-16.9
			c10.8,0,19.6,7.6,19.6,16.9C43.1,29.4,34.3,37,23.5,37z"/>
	</g>
</g>
</svg>
