<?xml version="1.0" encoding="utf-8"?>
<!-- Generator: Adobe Illustrator 18.0.0, SVG Export Plug-In . SVG Version: 6.00 Build 0)  -->
<!DOCTYPE svg PUBLIC "-//W3C//DTD SVG 1.1//EN" "http://www.w3.org/Graphics/SVG/1.1/DTD/svg11.dtd">
<svg version="1.1" id="图层_1" xmlns="http://www.w3.org/2000/svg" xmlns:xlink="http://www.w3.org/1999/xlink" x="0px" y="0px"
	 viewBox="0 0 46 46" enable-background="new 0 0 46 46" xml:space="preserve" fill= "#00d5fe">
<path d="M29.7,43.2L29.7,43.2c-0.8,0-1.6-0.3-2.1-0.9c-0.7-0.7-2.9-2.7-4.6-2.7c-1.8,0-4,1.9-4.6,2.6c-0.5,0.5-1.3,0.9-2.1,0.9
	c-0.4,0-0.7-0.1-1.1-0.2l-0.1,0l-5.4-3l-0.1,0c-1-0.7-1.4-2-0.9-3.1c0,0,0.5-1.1,0.5-2.2c0-3.1-2.6-5.6-5.7-5.6H3.5h0
	c-0.9,0-1.6-0.8-1.9-2c0-0.1-0.5-2.4-0.5-4.3c0-1.8,0.4-4.2,0.5-4.3c0.2-1.2,1-2,1.9-2h0.2c3.2,0,5.7-2.5,5.7-5.6
	c0-1-0.5-2.2-0.5-2.2C8.4,7.6,8.8,6.3,9.7,5.6l0.1,0l5.7-3.1l0.1,0c0.3-0.1,0.7-0.2,1-0.2c0.8,0,1.6,0.3,2.1,0.8
	c0.7,0.7,2.8,2.5,4.5,2.5c1.7,0,3.8-1.8,4.5-2.5c0.5-0.5,1.3-0.8,2.1-0.8c0.4,0,0.7,0.1,1.1,0.2l0.1,0l5.5,3l0.1,0
	c1,0.7,1.4,2,0.9,3.1c0,0-0.5,1.1-0.5,2.2c0,3.1,2.6,5.6,5.7,5.6h0.2c0.9,0,1.7,0.8,1.9,2c0,0.1,0.5,2.4,0.5,4.3
	c0,1.8-0.4,4.2-0.5,4.3c-0.2,1.2-1,2-1.9,2h-0.2c-3.2,0-5.7,2.5-5.7,5.6c0,1,0.5,2.1,0.5,2.2c0.5,1.1,0.1,2.4-0.9,3.1l-0.1,0
	L30.8,43l-0.1,0C30.4,43.2,30.1,43.2,29.7,43.2L29.7,43.2L29.7,43.2 M29.5,40.6c0,0,0.1,0,0.2,0h0l5.2-2.9c-0.1-0.3-0.7-1.7-0.7-3.2
	c0-4.4,3.5-8,7.9-8.2c0.1-0.3,0.4-2.3,0.4-3.7c0-1.5-0.3-3.4-0.4-3.7c-4.4-0.2-7.9-3.8-7.9-8.2c0-1.5,0.6-2.9,0.7-3.2l-5.1-2.8
	c0,0,0,0,0,0c-0.1,0-0.2,0-0.2,0c-0.1,0.1-0.8,0.8-1.9,1.6c-1.6,1.1-3.1,1.7-4.5,1.7c-1.4,0-2.9-0.6-4.5-1.7
	c-1.1-0.8-1.8-1.5-1.9-1.6c0,0-0.1-0.1-0.2-0.1c0,0,0,0,0,0l-5.3,2.9C11.4,8,12,9.4,12,10.8c0,4.4-3.5,8-7.9,8.2
	c-0.1,0.3-0.4,2.3-0.4,3.7c0,1.5,0.3,3.4,0.4,3.7c4.4,0.2,7.9,3.8,7.9,8.2c0,1.5-0.6,2.9-0.7,3.2l5,2.8c0,0,0,0,0,0
	c0.1,0,0.1,0,0.2,0c0.1-0.1,0.8-0.9,1.9-1.7c1.6-1.2,3.2-1.8,4.6-1.8c1.4,0,3,0.6,4.6,1.8C28.7,39.7,29.4,40.5,29.5,40.6L29.5,40.6
	L29.5,40.6 M23,30.2c-4.2,0-7.6-3.4-7.6-7.5c0-4.1,3.4-7.5,7.6-7.5c4.2,0,7.6,3.4,7.6,7.5C30.6,26.9,27.2,30.2,23,30.2L23,30.2
	L23,30.2 M23,17.8c-2.8,0-5,2.2-5,5c0,2.7,2.3,5,5,5c2.8,0,5-2.2,5-5C28,20,25.8,17.8,23,17.8L23,17.8L23,17.8 M23,17.8"/>
</svg>
