<?xml version="1.0" encoding="utf-8"?>
<!-- Generator: Adobe Illustrator 18.0.0, SVG Export Plug-In . SVG Version: 6.00 Build 0)  -->
<!DOCTYPE svg PUBLIC "-//W3C//DTD SVG 1.1//EN" "http://www.w3.org/Graphics/SVG/1.1/DTD/svg11.dtd">
<svg version="1.1" id="图层_1" xmlns="http://www.w3.org/2000/svg" xmlns:xlink="http://www.w3.org/1999/xlink" x="0px" y="0px"
	 viewBox="0 0 26 32" enable-background="new 0 0 26 32" xml:space="preserve">
<path fill="rgb(0, 213, 254)" fill-rule="evenodd" clip-rule="evenodd" d="M13,6.3c-3.6,0-6.5,2.8-6.5,6.3c0,3.5,2.9,6.3,6.5,6.3s6.5-2.8,6.5-6.3
	S16.6,6.3,13,6.3L13,6.3z M13,16.5c-2.2,0-4.1-1.8-4.1-3.9s1.8-3.9,4.1-3.9s4.1,1.8,4.1,3.9S15.3,16.5,13,16.5L13,16.5z M13,0
	C5.8,0,0,5.6,0,12.6c0,7.2,9.1,16.6,12.1,19.1c0.5,0.5,1.3,0.5,1.8,0c3-2.5,12.1-11.9,12.1-19.1C26,5.6,20.2,0,13,0L13,0z
	 M13.6,28.8c-0.3,0.3-0.8,0.3-1.1,0c-2.2-2-10-10.4-10-16.4c0-5.6,4.7-10,10.6-10c5.8,0,10.6,4.5,10.6,10
	C23.6,18.3,15.8,26.8,13.6,28.8L13.6,28.8z"/>
</svg>
